<svg width="113" height="20" viewBox="0 0 113 20" fill="none" xmlns="http://www.w3.org/2000/svg">
<path d="M0 0H6.8217C7.95614 0 9.00525 0.15377 9.96902 0.46131C10.9428 0.76885 11.7259 1.2748 12.3182 1.97917C12.9206 2.67361 13.2218 3.61607 13.2218 4.80655C13.2218 5.59028 13.0712 6.28968 12.77 6.90476C12.4788 7.51984 12.0873 8.02579 11.5954 8.42262C11.1135 8.80952 10.5864 9.06746 10.0142 9.19643C10.5162 9.25595 11.0031 9.3998 11.4749 9.62798C11.9568 9.84623 12.3885 10.1538 12.77 10.5506C13.1615 10.9375 13.4677 11.4236 13.6886 12.0089C13.9195 12.5843 14.0349 13.2688 14.0349 14.0625C14.0349 15.1637 13.784 16.1359 13.282 16.9792C12.7901 17.8125 12.0672 18.4673 11.1135 18.9435C10.1698 19.4097 9.01027 19.6429 7.63489 19.6429H0V0ZM4.50263 16.0863H6.55064C7.19316 16.0863 7.7152 15.9921 8.11677 15.8036C8.52838 15.6052 8.82956 15.3274 9.02031 14.9702C9.21106 14.6032 9.30643 14.1667 9.30643 13.6607C9.30643 12.8671 9.05545 12.2867 8.55348 11.9196C8.06156 11.5427 7.36885 11.3542 6.47535 11.3542H4.50263V16.0863ZM4.50263 7.87202H6.32476C6.85684 7.87202 7.29857 7.77778 7.64995 7.58928C8.01136 7.40079 8.28242 7.1379 8.46313 6.80059C8.65388 6.45337 8.74925 6.05655 8.74925 5.61012C8.74925 4.80655 8.51835 4.26587 8.05654 3.9881C7.59473 3.7004 6.96225 3.55655 6.15911 3.55655H4.50263V7.87202Z" fill="#00A4FF"/>
<path d="M26.3108 19.6429V17.6637C26.2205 17.8621 25.9895 18.1498 25.6181 18.5268C25.2567 18.9038 24.7748 19.246 24.1724 19.5536C23.5701 19.8512 22.8673 20 22.0642 20C20.8595 20 19.8053 19.7123 18.9018 19.1369C17.9983 18.5516 17.2955 17.7728 16.7936 16.8006C16.2916 15.8185 16.0406 14.7321 16.0406 13.5417C16.0406 12.3512 16.2916 11.2698 16.7936 10.2976C17.2955 9.31548 17.9983 8.53174 18.9018 7.94643C19.8053 7.36111 20.8595 7.06845 22.0642 7.06845C22.8372 7.06845 23.5149 7.19246 24.0971 7.44048C24.6794 7.67857 25.1513 7.96627 25.5127 8.30357C25.8741 8.63095 26.1251 8.93353 26.2656 9.21131V7.42559H30.8134V19.6429H26.3108ZM20.5282 13.5417C20.5282 14.0972 20.6587 14.5982 20.9197 15.0446C21.1807 15.4811 21.5271 15.8234 21.9588 16.0714C22.4005 16.3194 22.8874 16.4435 23.4195 16.4435C23.9717 16.4435 24.4586 16.3194 24.8802 16.0714C25.3019 15.8234 25.6332 15.4811 25.8741 15.0446C26.1251 14.5982 26.2506 14.0972 26.2506 13.5417C26.2506 12.9861 26.1251 12.4901 25.8741 12.0536C25.6332 11.6071 25.3019 11.2599 24.8802 11.0119C24.4586 10.754 23.9717 10.625 23.4195 10.625C22.8874 10.625 22.4005 10.754 21.9588 11.0119C21.5271 11.2599 21.1807 11.6071 20.9197 12.0536C20.6587 12.4901 20.5282 12.9861 20.5282 13.5417Z" fill="#00A4FF"/>
<path d="M37.9048 19.6429H33.3269V7.42559H37.9048V9.31548H37.8295C37.9098 9.0873 38.1056 8.7996 38.4168 8.45238C38.728 8.09524 39.1647 7.77778 39.7269 7.5C40.2891 7.2123 40.9768 7.06845 41.79 7.06845C42.3622 7.06845 42.8893 7.15774 43.3712 7.33631C43.8531 7.50496 44.2044 7.66865 44.4253 7.82738L42.6484 11.503C42.5078 11.3343 42.2568 11.1607 41.8954 10.9821C41.544 10.7937 41.1023 10.6994 40.5702 10.6994C39.9578 10.6994 39.4508 10.8532 39.0493 11.1607C38.6577 11.4683 38.3666 11.8403 38.1758 12.2768C37.9951 12.7133 37.9048 13.125 37.9048 13.5119V19.6429Z" fill="#00A4FF"/>
<path d="M44.9585 7.42559H47.0667V2.41071H51.5995V7.42559H54.3703V11.1458H51.5995V14.5536C51.5995 15.0595 51.6748 15.4712 51.8254 15.7887C51.976 16.0962 52.252 16.25 52.6536 16.25C52.9247 16.25 53.1556 16.1905 53.3463 16.0714C53.5371 15.9524 53.6525 15.873 53.6927 15.8333L55.2588 19.0476C55.1885 19.1071 54.9677 19.2163 54.5962 19.375C54.2348 19.5337 53.773 19.6776 53.2108 19.8065C52.6486 19.9355 52.0211 20 51.3284 20C50.0936 20 49.0746 19.6577 48.2715 18.9732C47.4683 18.2788 47.0667 17.2123 47.0667 15.7738V11.1458H44.9585V7.42559Z" fill="#00A4FF"/>
<path d="M60.5982 14.494C60.6283 14.9306 60.7688 15.3175 61.0198 15.6548C61.2708 15.9921 61.6171 16.2599 62.0589 16.4583C62.5106 16.6468 63.0427 16.7411 63.6551 16.7411C64.2374 16.7411 64.7594 16.6815 65.2212 16.5625C65.6931 16.4435 66.0997 16.2946 66.441 16.1161C66.7924 15.9375 67.0635 15.754 67.2542 15.5655L69.0312 18.3631C68.7802 18.631 68.4238 18.8938 67.962 19.1518C67.5102 19.3998 66.9129 19.6032 66.17 19.7619C65.4271 19.9206 64.4884 20 63.3539 20C61.9886 20 60.7738 19.747 59.7097 19.2411C58.6455 18.7351 57.8072 17.9911 57.1948 17.0089C56.5824 16.0268 56.2762 14.8264 56.2762 13.4077C56.2762 12.2173 56.5373 11.1458 57.0593 10.1935C57.5914 9.23115 58.3594 8.47222 59.3633 7.91667C60.3672 7.35119 61.577 7.06845 62.9925 7.06845C64.3378 7.06845 65.5023 7.31151 66.4862 7.79762C67.4801 8.28373 68.2431 9.00794 68.7752 9.97024C69.3173 10.9226 69.5883 12.1131 69.5883 13.5417C69.5883 13.621 69.5833 13.7798 69.5733 14.0179C69.5733 14.256 69.5632 14.4147 69.5432 14.494H60.5982ZM65.2815 12.128C65.2714 11.8105 65.1861 11.498 65.0255 11.1905C64.8649 10.873 64.6239 10.6151 64.3027 10.4167C63.9814 10.2083 63.5698 10.1042 63.0678 10.1042C62.5658 10.1042 62.1392 10.2034 61.7878 10.4018C61.4465 10.5903 61.1855 10.8383 61.0047 11.1458C60.824 11.4534 60.7236 11.7808 60.7036 12.128H65.2815Z" fill="#00A4FF"/>
<path d="M76.1404 19.6429H71.5625V7.42559H76.1404V9.31548H76.0651C76.1454 9.0873 76.3412 8.7996 76.6524 8.45238C76.9636 8.09524 77.4003 7.77778 77.9625 7.5C78.5247 7.2123 79.2124 7.06845 80.0256 7.06845C80.5978 7.06845 81.1249 7.15774 81.6068 7.33631C82.0887 7.50496 82.4401 7.66865 82.6609 7.82738L80.884 11.503C80.7434 11.3343 80.4924 11.1607 80.131 10.9821C79.7796 10.7937 79.3379 10.6994 78.8058 10.6994C78.1934 10.6994 77.6864 10.8532 77.2849 11.1607C76.8933 11.4683 76.6022 11.8403 76.4115 12.2768C76.2308 12.7133 76.1404 13.125 76.1404 13.5119V19.6429Z" fill="#00A4FF"/>
<path d="M89.8664 20C88.5111 20 87.3064 19.7272 86.2522 19.1815C85.2082 18.626 84.3849 17.8671 83.7826 16.9048C83.1903 15.9325 82.8941 14.8214 82.8941 13.5714C82.8941 12.3214 83.1903 11.2103 83.7826 10.2381C84.3849 9.25595 85.2082 8.48214 86.2522 7.91667C87.3064 7.35119 88.5111 7.06845 89.8664 7.06845C91.2217 7.06845 92.4164 7.35119 93.4504 7.91667C94.4845 8.48214 95.2926 9.25595 95.8749 10.2381C96.4572 11.2103 96.7483 12.3214 96.7483 13.5714C96.7483 14.8214 96.4572 15.9325 95.8749 16.9048C95.2926 17.8671 94.4845 18.626 93.4504 19.1815C92.4164 19.7272 91.2217 20 89.8664 20ZM89.8664 16.2798C90.3884 16.2798 90.8402 16.1657 91.2217 15.9375C91.6032 15.7093 91.8994 15.3869 92.1102 14.9702C92.321 14.5536 92.4264 14.0823 92.4264 13.5565C92.4264 13.0208 92.321 12.5446 92.1102 12.128C91.8994 11.7113 91.6032 11.3839 91.2217 11.1458C90.8402 10.9077 90.3884 10.7887 89.8664 10.7887C89.3443 10.7887 88.8876 10.9077 88.496 11.1458C88.1145 11.3839 87.8134 11.7113 87.5925 12.128C87.3817 12.5446 87.2763 13.0208 87.2763 13.5565C87.2763 14.0823 87.3817 14.5536 87.5925 14.9702C87.8134 15.3869 88.1145 15.7093 88.496 15.9375C88.8876 16.1657 89.3443 16.2798 89.8664 16.2798Z" fill="#00A4FF"/>
<path d="M107.639 7.06845C108.502 7.06845 109.346 7.24206 110.169 7.58928C110.992 7.93651 111.67 8.4871 112.202 9.24107C112.734 9.98512 113 10.9673 113 12.1875V19.6429H108.407V12.9315C108.407 12.0585 108.196 11.4038 107.775 10.9673C107.353 10.5208 106.801 10.2976 106.118 10.2976C105.666 10.2976 105.24 10.4167 104.838 10.6548C104.447 10.8829 104.125 11.2103 103.874 11.6369C103.633 12.0536 103.513 12.5347 103.513 13.0804V19.6429H98.9349V7.42559H103.513V9.22619C103.633 8.89881 103.884 8.57143 104.266 8.24405C104.657 7.90675 105.144 7.62897 105.727 7.41071C106.319 7.18254 106.956 7.06845 107.639 7.06845Z" fill="#00A4FF"/>
</svg>
