<svg width="85" height="14" viewBox="0 0 85 14" fill="none" xmlns="http://www.w3.org/2000/svg">
<path d="M0.210938 0H5.28194C6.12524 0 6.90511 0.107639 7.62154 0.322917C8.34544 0.538195 8.92754 0.892361 9.36784 1.38542C9.81561 1.87153 10.0395 2.53125 10.0395 3.36458C10.0395 3.91319 9.92756 4.40278 9.70367 4.83333C9.48725 5.26389 9.1962 5.61806 8.83052 5.89583C8.4723 6.16667 8.0805 6.34722 7.65512 6.4375C8.02826 6.47917 8.39021 6.57986 8.74097 6.73958C9.09918 6.89236 9.42008 7.10764 9.70367 7.38542C9.99472 7.65625 10.2223 7.99653 10.3865 8.40625C10.5582 8.80903 10.644 9.28819 10.644 9.84375C10.644 10.6146 10.4574 11.2951 10.0843 11.8854C9.7186 12.4688 9.18127 12.9271 8.4723 13.2604C7.7708 13.5868 6.90884 13.75 5.88643 13.75H0.210938V0ZM3.55802 11.2604H5.08044C5.55806 11.2604 5.94613 11.1944 6.24465 11.0625C6.55062 10.9236 6.77451 10.7292 6.9163 10.4792C7.05809 10.2222 7.12899 9.91667 7.12899 9.5625C7.12899 9.00694 6.94242 8.60069 6.56928 8.34375C6.2036 8.07986 5.68866 7.94792 5.02447 7.94792H3.55802V11.2604ZM3.55802 5.51042H4.91253C5.30806 5.51042 5.63642 5.44444 5.89762 5.3125C6.16629 5.18056 6.36778 4.99653 6.50211 4.76042C6.64391 4.51736 6.7148 4.23958 6.7148 3.92708C6.7148 3.36458 6.54316 2.98611 6.19987 2.79167C5.85658 2.59028 5.38642 2.48958 4.78939 2.48958H3.55802V5.51042Z" fill="black" fill-opacity="0.56"/>
<path d="M19.7694 13.75V12.3646C19.7022 12.5035 19.5306 12.7049 19.2545 12.9687C18.9858 13.2326 18.6276 13.4722 18.1798 13.6875C17.7321 13.8958 17.2097 14 16.6126 14C15.7171 14 14.9335 13.7986 14.2618 13.3958C13.5902 12.9861 13.0678 12.441 12.6946 11.7604C12.3215 11.0729 12.1349 10.3125 12.1349 9.47917C12.1349 8.64583 12.3215 7.88889 12.6946 7.20833C13.0678 6.52083 13.5902 5.97222 14.2618 5.5625C14.9335 5.15278 15.7171 4.94792 16.6126 4.94792C17.1873 4.94792 17.691 5.03472 18.1239 5.20833C18.5567 5.375 18.9075 5.57639 19.1761 5.8125C19.4448 6.04167 19.6314 6.25347 19.7358 6.44792V5.19792H23.1165V13.75H19.7694ZM15.4708 9.47917C15.4708 9.86805 15.5678 10.2188 15.7619 10.5312C15.9559 10.8368 16.2134 11.0764 16.5343 11.25C16.8626 11.4236 17.2246 11.5104 17.6201 11.5104C18.0306 11.5104 18.3925 11.4236 18.706 11.25C19.0194 11.0764 19.2657 10.8368 19.4448 10.5312C19.6314 10.2188 19.7246 9.86805 19.7246 9.47917C19.7246 9.09028 19.6314 8.74306 19.4448 8.4375C19.2657 8.125 19.0194 7.88194 18.706 7.70833C18.3925 7.52778 18.0306 7.4375 17.6201 7.4375C17.2246 7.4375 16.8626 7.52778 16.5343 7.70833C16.2134 7.88194 15.9559 8.125 15.7619 8.4375C15.5678 8.74306 15.4708 9.09028 15.4708 9.47917Z" fill="black" fill-opacity="0.56"/>
<path d="M28.3879 13.75H24.9849V5.19792H28.3879V6.52083H28.332C28.3917 6.36111 28.5372 6.15972 28.7685 5.91667C28.9999 5.66667 29.3245 5.44444 29.7425 5.25C30.1604 5.04861 30.6716 4.94792 31.2761 4.94792C31.7014 4.94792 32.0932 5.01042 32.4515 5.13542C32.8097 5.25347 33.0709 5.36806 33.2351 5.47917L31.9141 8.05208C31.8097 7.93403 31.6231 7.8125 31.3544 7.6875C31.0932 7.55556 30.7649 7.48958 30.3693 7.48958C29.9141 7.48958 29.5372 7.59722 29.2387 7.8125C28.9477 8.02778 28.7312 8.28819 28.5894 8.59375C28.4551 8.89931 28.3879 9.1875 28.3879 9.45833V13.75Z" fill="black" fill-opacity="0.56"/>
<path d="M33.6314 5.19792H35.1986V1.6875H38.5681V5.19792H40.6278V7.80208H38.5681V10.1875C38.5681 10.5417 38.6241 10.8299 38.736 11.0521C38.8479 11.2674 39.0532 11.375 39.3517 11.375C39.5532 11.375 39.7248 11.3333 39.8666 11.25C40.0084 11.1667 40.0942 11.1111 40.1241 11.0833L41.2883 13.3333C41.236 13.375 41.0719 13.4514 40.7957 13.5625C40.5271 13.6736 40.1838 13.7743 39.7659 13.8646C39.3479 13.9549 38.8815 14 38.3666 14C37.4487 14 36.6912 13.7604 36.0941 13.2812C35.4971 12.7951 35.1986 12.0486 35.1986 11.0417V7.80208H33.6314V5.19792Z" fill="black" fill-opacity="0.56"/>
<path d="M45.2574 10.1458C45.2797 10.4514 45.3842 10.7222 45.5708 10.9583C45.7574 11.1944 46.0148 11.3819 46.3432 11.5208C46.679 11.6528 47.0746 11.7187 47.5298 11.7187C47.9626 11.7187 48.3507 11.6771 48.694 11.5938C49.0447 11.5104 49.347 11.4062 49.6007 11.2812C49.8619 11.1562 50.0634 11.0278 50.2052 10.8958L51.5261 12.8542C51.3396 13.0417 51.0746 13.2257 50.7313 13.4062C50.3955 13.5799 49.9515 13.7222 49.3992 13.8333C48.847 13.9444 48.1492 14 47.3059 14C46.291 14 45.388 13.8229 44.5969 13.4688C43.8058 13.1146 43.1827 12.5937 42.7274 11.9062C42.2722 11.2187 42.0446 10.3785 42.0446 9.38542C42.0446 8.55208 42.2386 7.80208 42.6267 7.13542C43.0222 6.46181 43.5931 5.93056 44.3394 5.54167C45.0857 5.14583 45.985 4.94792 47.0372 4.94792C48.0373 4.94792 48.9029 5.11806 49.6343 5.45833C50.3731 5.79861 50.9403 6.30556 51.3358 6.97917C51.7388 7.64583 51.9403 8.47917 51.9403 9.47917C51.9403 9.53472 51.9366 9.64583 51.9291 9.8125C51.9291 9.97917 51.9217 10.0903 51.9067 10.1458H45.2574ZM48.7388 8.48958C48.7313 8.26736 48.6679 8.04861 48.5485 7.83333C48.4291 7.61111 48.2499 7.43056 48.0111 7.29167C47.7723 7.14583 47.4663 7.07292 47.0932 7.07292C46.7201 7.07292 46.4029 7.14236 46.1417 7.28125C45.888 7.41319 45.6939 7.5868 45.5596 7.80208C45.4253 8.01736 45.3506 8.24653 45.3357 8.48958H48.7388Z" fill="black" fill-opacity="0.56"/>
<path d="M56.8109 13.75H53.4078V5.19792H56.8109V6.52083H56.7549C56.8146 6.36111 56.9601 6.15972 57.1915 5.91667C57.4228 5.66667 57.7475 5.44444 58.1654 5.25C58.5833 5.04861 59.0945 4.94792 59.699 4.94792C60.1244 4.94792 60.5162 5.01042 60.8744 5.13542C61.2326 5.25347 61.4938 5.36806 61.658 5.47917L60.3371 8.05208C60.2326 7.93403 60.046 7.8125 59.7774 7.6875C59.5162 7.55556 59.1878 7.48958 58.7923 7.48958C58.337 7.48958 57.9602 7.59722 57.6616 7.8125C57.3706 8.02778 57.1542 8.28819 57.0124 8.59375C56.878 8.89931 56.8109 9.1875 56.8109 9.45833V13.75Z" fill="black" fill-opacity="0.56"/>
<path d="M67.0143 14C66.0068 14 65.1113 13.809 64.3277 13.4271C63.5515 13.0382 62.9396 12.5069 62.4918 11.8333C62.0515 11.1528 61.8313 10.375 61.8313 9.5C61.8313 8.625 62.0515 7.84722 62.4918 7.16667C62.9396 6.47917 63.5515 5.9375 64.3277 5.54167C65.1113 5.14583 66.0068 4.94792 67.0143 4.94792C68.0218 4.94792 68.9098 5.14583 69.6785 5.54167C70.4472 5.9375 71.0479 6.47917 71.4808 7.16667C71.9136 7.84722 72.1301 8.625 72.1301 9.5C72.1301 10.375 71.9136 11.1528 71.4808 11.8333C71.0479 12.5069 70.4472 13.0382 69.6785 13.4271C68.9098 13.809 68.0218 14 67.0143 14ZM67.0143 11.3958C67.4023 11.3958 67.7382 11.316 68.0218 11.1562C68.3053 10.9965 68.5255 10.7708 68.6822 10.4792C68.8389 10.1875 68.9173 9.85764 68.9173 9.48958C68.9173 9.11458 68.8389 8.78125 68.6822 8.48958C68.5255 8.19792 68.3053 7.96875 68.0218 7.80208C67.7382 7.63542 67.4023 7.55208 67.0143 7.55208C66.6262 7.55208 66.2867 7.63542 65.9956 7.80208C65.712 7.96875 65.4881 8.19792 65.3239 8.48958C65.1672 8.78125 65.0889 9.11458 65.0889 9.48958C65.0889 9.85764 65.1672 10.1875 65.3239 10.4792C65.4881 10.7708 65.712 10.9965 65.9956 11.1562C66.2867 11.316 66.6262 11.3958 67.0143 11.3958Z" fill="black" fill-opacity="0.56"/>
<path d="M80.2258 4.94792C80.8676 4.94792 81.4945 5.06944 82.1064 5.3125C82.7184 5.55556 83.2221 5.94097 83.6176 6.46875C84.0132 6.98958 84.2109 7.67708 84.2109 8.53125V13.75H80.7967V9.05208C80.7967 8.44097 80.64 7.98264 80.3265 7.67708C80.0131 7.36458 79.6026 7.20833 79.0952 7.20833C78.7593 7.20833 78.4422 7.29167 78.1436 7.45833C77.8526 7.61806 77.6138 7.84722 77.4272 8.14583C77.2481 8.4375 77.1585 8.77431 77.1585 9.15625V13.75H73.7555V5.19792H77.1585V6.45833C77.2481 6.22917 77.4347 6 77.7183 5.77083C78.0093 5.53472 78.3713 5.34028 78.8041 5.1875C79.2444 5.02778 79.7183 4.94792 80.2258 4.94792Z" fill="black" fill-opacity="0.56"/>
</svg>
