<svg width="11" height="10" viewBox="0 0 11 10" fill="none" xmlns="http://www.w3.org/2000/svg">
<path fill-rule="evenodd" clip-rule="evenodd" d="M0.812012 1.09941L1.9903 0L3.23733 1.28132C3.85166 0.97074 4.54888 0.795357 5.28793 0.795357C6.14003 0.795357 6.9365 1.02849 7.61447 1.43317L9.00929 0L10.1876 1.09941L8.82826 2.49609C9.41477 3.23731 9.76385 4.16769 9.76385 5.1779C9.76385 6.09859 9.4739 6.95296 8.97853 7.65826L10.1876 8.90055L9.00929 9.99996L7.82841 8.7866C7.10669 9.27463 6.2314 9.56045 5.28793 9.56045C4.45637 9.56045 3.67778 9.33841 3.01061 8.95159L1.9903 9.99996L0.812012 8.90055L1.78256 7.90332C1.17499 7.15515 0.812012 6.20803 0.812012 5.1779C0.812012 4.059 1.24026 3.03803 1.94501 2.26356L0.812012 1.09941ZM2.40865 5.1779C2.40865 6.73492 3.69775 7.99713 5.28793 7.99713C6.87812 7.99713 8.16722 6.73492 8.16722 5.1779C8.16722 3.62089 6.87812 2.35868 5.28793 2.35868C3.69775 2.35868 2.40865 3.62089 2.40865 5.1779Z" fill="white"/>
</svg>
