<?xml version="1.0" encoding="UTF-8" standalone="no"?>
<svg
   version="1.1"
   width="21"
   height="20"
   xmlns="http://www.w3.org/2000/svg"
   xmlns:svg="http://www.w3.org/2000/svg"
>
  <symbol viewBox="0 0 21 20" id="twitter">
    <path
       d="m 18.2394,3.35928 c -0.6792,0.32083 -1.835,0.9225 -2.4159,1.0375 -0.0225,0.00583 -0.0408,0.01333 -0.0625,0.01916 -0.6775,-0.66833 -1.6058,-1.0825 -2.6333,-1.0825 -2.0708,0 -3.74999,1.67917 -3.74999,3.75 0,0.10917 -0.00917,0.31 0,0.41667 -2.68167,0 -4.64,-1.39917 -6.10583,-3.1975 C 3.07605,4.06094 2.86771,4.18678 2.82438,4.35844 2.72688,4.74678 2.69355,5.39594 2.69355,5.85928 c 0,1.1675 0.91249,2.31416 2.33333,3.025 -0.26167,0.0675 -0.55,0.11583 -0.85,0.11583 -0.35334,0 -0.76,-0.0925 -1.11583,-0.27917 -0.13167,-0.06916 -0.41584,-0.05 -0.33167,0.28667 0.3375,1.34919 1.8775,2.29669 3.25333,2.57249 -0.3125,0.1842 -0.97916,0.1467 -1.28583,0.1467 -0.11334,0 -0.5075,-0.0267 -0.7625,-0.0584 -0.2325,-0.0283 -0.59,0.0317 -0.29083,0.485 0.6425,0.9725 2.09583,1.5834 3.34666,1.6067 -1.15166,0.9033 -3.035,1.2333 -4.83916,1.2333 -0.365,-0.0083 -0.34667,0.4075 -0.0525,0.5617 1.33083,0.6983 3.51083,1.1117 5.06833,1.1117 6.19162,0 9.71082,-4.7192 9.71082,-9.16752 0,-0.07167 -0.0017,-0.22167 -0.0042,-0.3725 0,-0.015 0.0042,-0.02917 0.0042,-0.04417 0,-0.0225 -0.0067,-0.04417 -0.0067,-0.06667 -0.0025,-0.11333 -0.005,-0.21916 -0.0075,-0.27416 0.4909,-0.35417 1.2425,-0.96917 1.6225,-1.44 0.1292,-0.16 0.025,-0.35417 -0.1508,-0.29334 -0.4525,0.1575 -1.235,0.4625 -1.725,0.52084 C 17.591,4.88011 18.076,4.31511 18.4927,3.68761 18.6352,3.47344 18.4569,3.25594 18.2394,3.35928 Z"
       fill="#000000"
       fill-opacity="0.56"
       id="path2" />
  </symbol>
  <symbol viewBox="0 0 21 20" id="linkedin">
    <path
       d="M 3.54443,7.22214 H 6.32221 V 16.6666 H 3.54443 Z M 4.92499,6.11103 H 4.90943 c -0.82889,0 -1.365,-0.61778 -1.365,-1.38944 0,-0.78834 0.55278,-1.38834 1.39667,-1.38834 0.845,0 1.36556,0.6 1.38111,1.38834 0,0.77111 -0.53611,1.38944 -1.39722,1.38944 z M 16.8778,16.6666 H 14.1 v -5.055 c 0,-1.2211 -0.6806,-2.05446 -1.7733,-2.05446 -0.8339,0 -1.285,0.56226 -1.5039,1.10556 -0.08,0.1944 -0.0561,0.7322 -0.0561,1.0039 v 5 H 7.98888 V 7.22214 h 2.77782 v 1.45333 c 0.4005,-0.62 1.0277,-1.45333 2.6322,-1.45333 1.9878,0 3.4783,1.25 3.4783,4.04116 z"
       fill="#000000"
       fill-opacity="0.56"
       id="path5" />
  </symbol>
  <symbol viewBox="0 0 21 20" id="facebook">
    <path
       d="M 14.8153,7.49989 H 11.8778 V 5.83322 c 0,-0.86 0.07,-1.40166 1.3025,-1.40166 h 1.5566 v -2.65 c -0.7575,-0.07834 -1.5191,-0.11667 -2.2816,-0.115 -2.2609,0 -3.91087,1.38083 -3.91087,3.91583 v 1.9175 h -2.5 v 3.33331 l 2.5,-8e-4 v 7.5008 h 3.33337 v -7.5025 l 2.555,-8e-4 z"
       fill="#000000"
       fill-opacity="0.56"
       id="path8" />
  </symbol>
</svg>
